<svg id="Repair_Service" data-name="Repair Service" xmlns="http://www.w3.org/2000/svg" viewBox="0 0 64 64"><polygon points="59 41 61 55 13 55 3 55 5 41 9 41 55 41 59 41" style="fill: rgb(183, 235, 209);" id="id_101"></polygon><path d="M59,14V41H55V17a1,1,0,0,0-1-1H50V12h7A2.006,2.006,0,0,1,59,14Z" style="fill: rgb(107, 189, 143);" id="id_102"></path><path d="M14,12v4H10a1,1,0,0,0-1,1V41H5V14a2.006,2.006,0,0,1,2-2Z" style="fill: rgb(107, 189, 143);" id="id_103"></path><path d="M39.36,8.39l-6.93,6.94a3.952,3.952,0,0,1-.92-2.57,5.982,5.982,0,0,0-8.58-5.48l4,3.99-.71,2.12-2.12.71-4-4a5.983,5.983,0,0,0,5.43,8.58,4.089,4.089,0,0,1,2.91,1.17l.44.44-2.95,2.95H24.51l-3.53,4.95,2.83,2.83,4.95-3.53V26.07l2.95-2.95,6.53,6.54a3,3,0,0,0,2.12.88,3.005,3.005,0,0,0,2.13-5.13l-5.83-5.83,6.95-6.94a3.005,3.005,0,0,0-4.25-4.25ZM50,16V33a2.006,2.006,0,0,1-2,2H16a2.006,2.006,0,0,1-2-2V5a2.006,2.006,0,0,1,2-2H48a2.006,2.006,0,0,1,2,2V16Z" style="fill: rgb(101, 186, 131);" id="id_104"></path><path d="M61.99,54.86,60,40.93V14a3.009,3.009,0,0,0-3-3H51V5a3.009,3.009,0,0,0-3-3H16a3.009,3.009,0,0,0-3,3v6H7a3.009,3.009,0,0,0-3,3V40.93L2.01,54.86A.66.66,0,0,0,2,55v3a3.009,3.009,0,0,0,3,3H59a3.009,3.009,0,0,0,3-3V55A.66.66,0,0,0,61.99,54.86ZM51,13h6a1,1,0,0,1,1,1V40H56V17a2.006,2.006,0,0,0-2-2H51ZM15,5a1,1,0,0,1,1-1H48a1,1,0,0,1,1,1V33a1,1,0,0,1-1,1H16a1,1,0,0,1-1-1Zm1,31H48a3.009,3.009,0,0,0,3-3V17h3V40H10V17h3V33A3.009,3.009,0,0,0,16,36ZM6,14a1,1,0,0,1,1-1h6v2H10a2.006,2.006,0,0,0-2,2V40H6ZM5.87,42H58.13l1.72,12H4.15ZM60,58a1,1,0,0,1-1,1H5a1,1,0,0,1-1-1V56H60Z" style="fill: rgb(48, 92, 66);" id="id_105"></path><path d="M38.08,19.58l6.23-6.24a4,4,0,1,0-5.65-5.65l-6,6a2.906,2.906,0,0,1-.15-.92,6.889,6.889,0,0,0-2.05-5.04A7,7,0,0,0,22.5,6.38a1,1,0,0,0-.56.73,1.022,1.022,0,0,0,.28.88l3.56,3.55-.35,1.06-1.06.36L20.81,9.39a1,1,0,0,0-1.61.28,7.058,7.058,0,0,0,.63,7.12,6.971,6.971,0,0,0,5.66,2.89,3.03,3.03,0,0,1,1.95.64l-1.93,1.92h-1a1.009,1.009,0,0,0-.81.42l-3.53,4.95a1,1,0,0,0,.1,1.29l2.83,2.83a1.007,1.007,0,0,0,.71.29.981.981,0,0,0,.58-.19l4.95-3.53a1.009,1.009,0,0,0,.42-.81v-1l1.95-1.96,5.82,5.84A4.009,4.009,0,0,0,43.2,24.7ZM40.07,9.1a2.041,2.041,0,0,1,2.83,0,1.992,1.992,0,0,1,0,2.83L35.83,19,33,16.17ZM25.53,17.68H25.5a4.97,4.97,0,0,1-4.93-5.7l2.82,2.83a1.007,1.007,0,0,0,1.03.24l2.12-.71a1.011,1.011,0,0,0,.63-.63l.71-2.12a1.028,1.028,0,0,0-.24-1.03L24.81,7.74a4.993,4.993,0,0,1,4.24,1.41,4.919,4.919,0,0,1,1.46,3.6,4.863,4.863,0,0,0,.63,2.45l-.26.26a1.008,1.008,0,0,0,0,1.42L28.85,18.9A5.049,5.049,0,0,0,25.53,17.68Zm2.52,7.68a1.007,1.007,0,0,0-.29.71v.9l-3.84,2.74-1.63-1.63,2.74-3.84h.9a1.007,1.007,0,0,0,.71-.29l5.65-5.66,1.42,1.42Zm13.74,3.59a2.054,2.054,0,0,1-2.84,0l-5.83-5.83,2-2a.99.99,0,0,0,.71.29,1.007,1.007,0,0,0,.71-.29l.12-.12,5.12,5.12A2.013,2.013,0,0,1,41.79,28.95Z" style="fill: rgb(91, 107, 98);" id="id_106"></path><rect x="9" y="44" width="4" height="2" style="fill: rgb(85, 125, 104);" id="id_107"></rect><rect x="15" y="44" width="4" height="2" style="fill: rgb(85, 125, 104);" id="id_108"></rect><rect x="21" y="44" width="4" height="2" style="fill: rgb(85, 125, 104);" id="id_109"></rect><rect x="27" y="44" width="4" height="2" style="fill: rgb(85, 125, 104);" id="id_110"></rect><rect x="7" y="49" width="4" height="2" style="fill: rgb(85, 125, 104);" id="id_111"></rect><rect x="13" y="49" width="4" height="2" style="fill: rgb(85, 125, 104);" id="id_112"></rect><rect x="51" y="44" width="4" height="2" style="fill: rgb(85, 125, 104);" id="id_113"></rect><rect x="45" y="44" width="4" height="2" style="fill: rgb(85, 125, 104);" id="id_114"></rect><rect x="39" y="44" width="4" height="2" style="fill: rgb(85, 125, 104);" id="id_115"></rect><rect x="33" y="44" width="4" height="2" style="fill: rgb(85, 125, 104);" id="id_116"></rect><rect x="53" y="49" width="4" height="2" style="fill: rgb(85, 125, 104);" id="id_117"></rect><rect x="47" y="49" width="4" height="2" style="fill: rgb(85, 125, 104);" id="id_118"></rect><rect x="19" y="49" width="26" height="2" style="fill: rgb(66, 84, 75);" id="id_119"></rect></svg>